<?xml version="1.0" encoding="UTF-8" standalone="no"?>
<!-- Created with Inkscape (http://www.inkscape.org/) -->

<svg
   xmlns:dc="http://purl.org/dc/elements/1.1/"
   xmlns:cc="http://creativecommons.org/ns#"
   xmlns:rdf="http://www.w3.org/1999/02/22-rdf-syntax-ns#"
   xmlns:svg="http://www.w3.org/2000/svg"
   xmlns="http://www.w3.org/2000/svg"
   xmlns:sodipodi="http://sodipodi.sourceforge.net/DTD/sodipodi-0.dtd"
   xmlns:inkscape="http://www.inkscape.org/namespaces/inkscape"
   width="210mm"
   height="297mm"
   viewBox="0 0 210 297"
   version="1.1"
   id="svg8"
   sodipodi:docname="drawing.svg"
   inkscape:version="0.92.4 5da689c313, 2019-01-14">
  <defs
     id="defs2">
    <inkscape:path-effect
       effect="powerstroke"
       id="path-effect4716"
       is_visible="true"
       offset_points="0,0.13229166"
       sort_points="true"
       interpolator_type="CubicBezierJohan"
       interpolator_beta="0.2"
       start_linecap_type="zerowidth"
       linejoin_type="extrp_arc"
       miter_limit="4"
       end_linecap_type="zerowidth" />
    <inkscape:path-effect
       effect="powerstroke"
       id="path-effect3774"
       is_visible="true"
       offset_points="0,0.13229166"
       sort_points="true"
       interpolator_type="CubicBezierJohan"
       interpolator_beta="0.2"
       start_linecap_type="zerowidth"
       linejoin_type="extrp_arc"
       miter_limit="4"
       end_linecap_type="zerowidth" />
  </defs>
  <sodipodi:namedview
     id="base"
     pagecolor="#ffffff"
     bordercolor="#666666"
     borderopacity="1.0"
     inkscape:pageopacity="0.0"
     inkscape:pageshadow="2"
     inkscape:zoom="0.98994949"
     inkscape:cx="334.247"
     inkscape:cy="873.50327"
     inkscape:document-units="mm"
     inkscape:current-layer="layer1"
     showgrid="false"
     inkscape:window-width="1920"
     inkscape:window-height="1012"
     inkscape:window-x="0"
     inkscape:window-y="0"
     inkscape:window-maximized="1" />
  <metadata
     id="metadata5">
    <rdf:RDF>
      <cc:Work
         rdf:about="">
        <dc:format>image/svg+xml</dc:format>
        <dc:type
           rdf:resource="http://purl.org/dc/dcmitype/StillImage" />
      </cc:Work>
    </rdf:RDF>
  </metadata>
  <g
     inkscape:label="Layer 1"
     inkscape:groupmode="layer"
     id="layer1">
    <path
       style="fill:#000000;fill-rule:nonzero;stroke:none;stroke-width:0.99999994px;stroke-linecap:butt;stroke-linejoin:miter;stroke-opacity:1"
       d="m -1804.1328,461.38086 182.9277,0.0645 c -0.013,-0.0214 -0.026,-0.043 -0.039,-0.0645 z"
       transform="scale(0.26458333)"
       id="path3860" />
    <path
       style="fill:#000000;fill-rule:nonzero;stroke:none;stroke-width:0.99999994px;stroke-linecap:butt;stroke-linejoin:miter;stroke-opacity:1"
       d="m -1620.6504,462.31641 -183.4824,0.0644 h 183.5234 c -0.014,-0.0214 -0.027,-0.043 -0.041,-0.0644 z"
       transform="scale(0.26458333)"
       id="path3842" />
    <path
       style="fill:#b3b3b3;fill-opacity:1;stroke-width:0.26726952"
       d="m 72.892797,150.69974 c -0.184666,-0.0744 -0.275259,-0.23324 -0.201321,-0.35288 0.07394,-0.11963 -0.277411,-0.57912 -0.780773,-1.02108 -0.503361,-0.44195 -0.868709,-0.85005 -0.811881,-0.90688 0.05683,-0.0568 -0.70938,-0.97442 -1.702681,-2.03909 -0.993302,-1.06467 -1.766105,-1.97567 -1.717334,-2.02444 0.04877,-0.0488 -0.327605,-0.45416 -0.836382,-0.90087 -0.508773,-0.44671 -0.869588,-0.86766 -0.801807,-0.93545 0.06778,-0.0678 -0.293031,-0.48873 -0.801809,-0.93544 -0.508775,-0.44671 -0.869588,-0.86766 -0.801809,-0.93544 0.06778,-0.0678 -0.293032,-0.48873 -0.80181,-0.93545 -0.508772,-0.44671 -0.869587,-0.86766 -0.801806,-0.93544 0.06778,-0.0678 -0.293031,-0.48873 -0.801809,-0.93544 -0.508776,-0.44671 -0.881052,-0.8562 -0.827278,-0.90997 0.05377,-0.0538 -0.714103,-0.9697 -1.706391,-2.03539 -0.992285,-1.06569 -1.762588,-1.97918 -1.71178,-2.02999 0.05081,-0.0508 -0.323895,-0.45787 -0.832673,-0.90458 -0.508775,-0.44671 -0.869587,-0.86766 -0.801809,-0.93545 0.06778,-0.0678 -0.293031,-0.48873 -0.801807,-0.93544 -0.508775,-0.44671 -0.86959,-0.86766 -0.801809,-0.93544 0.06778,-0.0678 -0.293031,-0.48873 -0.801809,-0.93545 -0.508775,-0.44671 -0.869587,-0.86766 -0.801809,-0.93544 0.06778,-0.0678 -0.293031,-0.48873 -0.801809,-0.93544 -0.508773,-0.44671 -0.88105,-0.8562 -0.827276,-0.90997 0.05377,-0.0538 -0.714105,-0.9697 -1.70639,-2.03539 -0.992286,-1.06569 -1.762588,-1.97918 -1.71178,-2.02999 0.05081,-0.0508 -0.323898,-0.45787 -0.832673,-0.90458 -0.508775,-0.44671 -0.86959,-0.86766 -0.801809,-0.93545 0.06778,-0.0678 -0.293032,-0.48873 -0.801809,-0.93544 -0.508776,-0.44671 -0.869588,-0.86766 -0.80181,-0.93544 0.06778,-0.0678 -0.293031,-0.48873 -0.801806,-0.93545 -0.508775,-0.44671 -0.878554,-0.8587 -0.821727,-0.91552 0.05683,-0.0568 -0.70938,-0.97442 -1.702681,-2.03909 -0.993302,-1.06467 -1.766102,-1.97567 -1.717334,-2.02444 0.04877,-0.0488 -0.327604,-0.45416 -0.83638,-0.90087 -0.508775,-0.44672 -0.869587,-0.86766 -0.801809,-0.93545 0.06778,-0.0678 -0.293031,-0.48873 -0.801809,-0.93544 -0.508773,-0.44671 -0.869587,-0.86766 -0.801809,-0.93544 0.06778,-0.0678 -0.293032,-0.48874 -0.801807,-0.93545 -0.508775,-0.44671 -0.86959,-0.86766 -0.801809,-0.93544 0.06778,-0.0678 -0.293031,-0.48873 -0.801806,-0.93545 -0.508778,-0.44671 -0.881055,-0.85619 -0.827281,-0.90997 0.05377,-0.0538 -0.714103,-0.96969 -1.706388,-2.03538 -0.992288,-1.06569 -1.762591,-1.97919 -1.711783,-2.02999 0.05081,-0.0508 -0.323895,-0.457871 -0.83267,-0.904583 -0.508778,-0.446712 -0.86959,-0.867662 -0.801809,-0.935445 0.06778,-0.06778 -0.293031,-0.488731 -0.801809,-0.935442 -0.508775,-0.446712 -0.86959,-0.867662 -0.801809,-0.935443 0.06778,-0.06778 -0.293032,-0.488733 -0.801807,-0.935445 -0.508778,-0.446712 -0.881052,-0.856199 -0.827281,-0.909973 0.05377,-0.05377 -0.714099,-0.969695 -1.706388,-2.035384 -0.992288,-1.065686 -1.76259,-1.979184 -1.711782,-2.029992 0.05081,-0.05081 -0.323895,-0.457867 -0.83267,-0.904579 -0.508778,-0.446712 -0.869591,-0.867661 -0.80181,-0.935445 0.06778,-0.06778 -0.293031,-0.48873 -0.801809,-0.935442 -0.508775,-0.446712 -0.86959,-0.867661 -0.801806,-0.935445 0.06778,-0.06778 -0.293034,-0.48873 -0.80181,-0.935442 -0.508777,-0.446712 -0.86959,-0.867661 -0.801809,-0.935442 0.06778,-0.06778 -0.293031,-0.488733 -0.801809,-0.935445 -0.508775,-0.446712 -0.881052,-0.8562 -0.827278,-0.909974 0.05377,-0.05377 -0.714102,-0.969695 -1.70639,-2.035384 -0.992286,-1.065687 -1.762588,-1.979183 -1.711781,-2.029991 0.05081,-0.05081 -0.336796,-0.469197 -0.861343,-0.929754 -0.524547,-0.460557 -0.8746724,-0.837377 -0.7780598,-0.837377 0.096615,0 0.025929,-0.180407 -0.1570593,-0.400904 -0.2955896,-0.356164 6.5883051,-0.400905 61.6837801,-0.400905 h 62.016504 l 28.94932,29.065556 c 15.92212,15.98606 32.55723,32.70377 36.9669,37.15047 l 8.01759,8.0849 -67.07879,-0.0211 c -36.89334,-0.0116 -67.22988,-0.082 -67.414543,-0.15645 z"
       id="path4736"
       inkscape:connector-curvature="0" />
  </g>
</svg>
